<svg xmlns="http://www.w3.org/2000/svg" viewBox="0 0 150 150">
  <defs>
    <style>

    #Layer_2 {
      transform: scale(1);
    }

     .inner {
      filter: drop-shadow(4px 8px 4px rgb(0 0 0 / 0.2))
     }
      .cls-1 {
        fill: #f6871f;
      }

      .cls-2 {
        fill: #81bc40;
      }

      .cls-3 {
        fill: #00b5dc;
      }

      .cls-4 {
        fill: #b41e8e;
      }

      .cls-5 {
        fill: #ee303d;
      }

      .cls-6 {
        fill: #d36226;
      }

      .cls-7 {
        fill: #008355;
      }

      .cls-8 {
        fill: #4d2682;
      }

      .cls-9 {
        fill: #982246;
      }

      .cls-10 {
        fill: #ba141a;
      }
    </style>
  </defs>
  <g id="Layer_2" data-name="Layer 2">
    <g id="Prodigious_BL_-_4c_process" data-name="Prodigious BL - 4c process">
      <g class='inner'>
        <path id="bar-5" class="cls-1 " d="M73.42,3.74a87.94,87.94,0,0,1-53.15,18c-.7,0-1.38,0-2.07,0A17.45,17.45,0,0,1,33.91,33.33a122.7,122.7,0,0,1,5.54,21.8,123,123,0,0,0,19.14-4.64,124.79,124.79,0,0,0,17.25-7.2,122.66,122.66,0,0,1-8.32-20.93,17.42,17.42,0,0,1,5.9-18.62"/>
        <path id="bar-4" class="cls-2 " d="M101.08,12.75a17.49,17.49,0,0,1-6.2,18.52,122.86,122.86,0,0,1-19,12A122.92,122.92,0,0,0,86.17,60a122.68,122.68,0,0,0,12.18,14.2,122.31,122.31,0,0,1,17.34-14.37,17.22,17.22,0,0,1,9.84-3.07,17.42,17.42,0,0,1,9.69,2.93,87.82,87.82,0,0,1-34.14-47"/>
        <path id="bar-3" class="cls-3 " d="M98.35,74.25a123.95,123.95,0,0,0-22.48,31,122.86,122.86,0,0,1,19,12,17.49,17.49,0,0,1,6.18,18.53,87.65,87.65,0,0,1,34.13-47,17.61,17.61,0,0,1-9.7,2.92,17.3,17.3,0,0,1-9.86-3.07A124.1,124.1,0,0,1,98.35,74.25"/>
        <path id="bar-2" class="cls-4 " d="M39.46,93.41h0a121.55,121.55,0,0,1-5.55,21.83A17.42,17.42,0,0,1,18.2,126.82h2A87.83,87.83,0,0,1,73.4,144.76a17.49,17.49,0,0,1-5.87-18.64,124.43,124.43,0,0,1,8.34-20.9,124.62,124.62,0,0,0-18.19-7.49,121.18,121.18,0,0,0-18.22-4.32"/>
        <path id="bar-1" class="cls-5 " d="M1.08,45.22a88,88,0,0,1,0,58.07A17.43,17.43,0,0,1,17,91.94c1.09,0,2.18,0,3.27,0a125.07,125.07,0,0,1,19.18,1.51A121.3,121.3,0,0,0,41,73.78a121,121,0,0,0-1.51-18.65,122.87,122.87,0,0,1-19.09,1.51c-1.14,0-2.26,0-3.4-.06A17.46,17.46,0,0,1,1.08,45.22"/>
        <path id="drop-5" class="cls-6 " d="M101.09,12.75A17.6,17.6,0,0,0,89.65.84a17.75,17.75,0,0,0-16.23,2.9,17.42,17.42,0,0,0-5.9,18.62,121.85,121.85,0,0,0,8.32,20.93,124.16,124.16,0,0,0,19-12A17.49,17.49,0,0,0,101.09,12.75Zm-9.77,6.89a7.39,7.39,0,1,1-4.72-9.33A7.4,7.4,0,0,1,91.32,19.64Z"/>
        <path id="drop-4" class="cls-7 " d="M135.22,59.73a17.43,17.43,0,0,0-19.53.14A123,123,0,0,0,98.34,74.24a123.56,123.56,0,0,0,17.33,14.4,17.3,17.3,0,0,0,9.86,3.07,17.45,17.45,0,0,0,9.69-32Zm-2.66,16.78a7.38,7.38,0,1,1-4.71-9.33A7.38,7.38,0,0,1,132.56,76.51Z"/>
        <path id="drop-3" class="cls-8 " d="M94.91,117.26a121.83,121.83,0,0,0-19-12,123.66,123.66,0,0,0-8.33,20.91,17.44,17.44,0,0,0,5.87,18.63,17.46,17.46,0,0,0,27.67-9A17.44,17.44,0,0,0,94.91,117.26Zm-3.62,16A7.38,7.38,0,1,1,86.57,124,7.37,7.37,0,0,1,91.29,133.31Z"/>
        <path id="drop-2" class="cls-9 " d="M17,91.94a17.46,17.46,0,1,0,16.9,23.3,121.55,121.55,0,0,0,5.55-21.83A121.75,121.75,0,0,0,17,91.94Zm7.43,19.67a7.38,7.38,0,1,1-4.73-9.32A7.38,7.38,0,0,1,24.44,111.61Z"/>
        <path id="drop-1" class="cls-10 " d="M33.91,33.33A17.46,17.46,0,1,0,17,56.58c1.12.05,2.24.06,3.39.06a122.84,122.84,0,0,0,19.08-1.51A122.7,122.7,0,0,0,33.91,33.33Zm-9.42,8a7.38,7.38,0,1,1-4.72-9.32A7.39,7.39,0,0,1,24.49,41.37Z"/>
      </g>
    </g>
  </g>
</svg>
