<svg xmlns="http://www.w3.org/2000/svg" viewBox="0 0 109.65 743.3"><defs><style>.cls-1{fill:#231f20;}</style></defs><g id="Layer_2" data-name="Layer 2"><g id="Layer_1-2" data-name="Layer 1"><path class="cls-1" d="M59.81.41A153.34,153.34,0,0,0,25.94,30.17C16.13,41.82,7.45,55.05,2.87,69.68a59.83,59.83,0,0,0,2.46,43c6.24,14,16.48,25.85,26,37.7L65.67,193.2c10.64,13.25,22.69,26.2,31.22,41a54.28,54.28,0,0,1,7.64,23.56c.6,9-.82,17.91-2.3,26.73-2.72,16.24-5.67,33-14.27,47.28-7.66,12.75-18.87,22.79-29.85,32.6-10.56,9.43-20.93,18.91-29.38,30.34C12.52,416.59,2.39,444.3,4.17,471.78A89.88,89.88,0,0,0,16,510.94c7.28,12.68,17.19,23.64,27.28,34.13,20.73,21.53,46,45,48.62,76.74,4.12,50.31-58.15,64.48-76.17,104a52.12,52.12,0,0,0-4.23,14.39c-.44,3.15,4.37,4.51,4.82,1.33,3-21.58,20.33-36.14,36.2-49.22,16.06-13.24,33.93-26.9,41.33-47.16,10.33-28.27-5.63-57.78-23.7-78.91-19.24-22.49-44.79-41.4-55.66-69.89-10.08-26.42-5.42-56.12,7.21-80.82a132,132,0,0,1,25.16-34c10.37-10.19,21.86-19.19,31.86-29.75A93.84,93.84,0,0,0,101,314.17a197.74,197.74,0,0,0,5.31-23.84c1.42-8.23,3-16.53,3.31-24.89.71-16.3-5.14-30.22-14.58-43.22-10-13.75-21.13-26.73-31.76-40q-16.86-21-33.73-42C20,128.31,10.12,115.63,6.33,100.59,2.27,84.45,7.26,68.08,15.26,54a142.2,142.2,0,0,1,29.11-35.6,147.05,147.05,0,0,1,18-13.65C65,3,62.52-1.35,59.81.41Z"/></g></g></svg>